# xmcd CD database file
#
# Track frame offsets:
#	150
#	18231
#	30960
#	51647
#	74950
#	100950
#	125260
#	146815
#	167727
#	190059
#	211958
#	232194
#	247007
#	271247
#	294769
#	319029
#	339967
#
# Disc length: 4665 seconds
#
# Revision: 0
# Processed by: cddbd v1.5.1PL2 Copyright (c) Steve Scherf et al.
# Submitted via: CDex 1.51
#
DISCID=00123711
DTITLE=Vari - THE NIGHT
DYEAR=1900
DGENRE=Jazz
TTITLE0=MIDNIGHT CRUISE
TTITLE1=AVE MARIA
TTITLE2=STRANGER IN THE NIGHT
TTITLE3=TU CHE M'HAI PRESO IL CUOR
TTITLE4=PENOMBRA
TTITLE5=hARLEM NOCTURNE
TTITLE6=NOTTURNO IN G MINOR
TTITLE7=ADAGIO MOLTO
TTITLE8=PIO PIO
TTITLE9=LULLABY
TTITLE10=MOONLIGHT SERENADE
TTITLE11=YOU AND THE NIGHT AND THE MUSIC
TTITLE12=SMOKE GETS IN YOUR EYES
TTITLE13=YALE
TTITLE14=NOTTURNO IN F MINOR
TTITLE15=FIRST STEP
TTITLE16=AVE MARIA
EXTD=
EXTT0=
EXTT1=
EXTT2=
EXTT3=
EXTT4=
EXTT5=
EXTT6=
EXTT7=
EXTT8=
EXTT9=
EXTT10=
EXTT11=
EXTT12=
EXTT13=
EXTT14=
EXTT15=
EXTT16=
PLAYORDER=
